<svg width="21" height="20" viewBox="0 0 21 20" fill="none" xmlns="http://www.w3.org/2000/svg">
<path fill-rule="evenodd" clip-rule="evenodd" d="M11.5263 5.23202C11.6272 5.14786 11.7437 5.08441 11.8691 5.04529C11.9945 5.00617 12.1264 4.99215 12.2573 5.00404C12.3881 5.01593 12.5154 5.05349 12.6317 5.11457C12.748 5.17565 12.8512 5.25906 12.9353 5.36003L16.2683 9.36002C16.3561 9.46038 16.4229 9.57729 16.4648 9.70386C16.5068 9.83043 16.523 9.96411 16.5125 10.097C16.5021 10.23 16.4651 10.3595 16.4038 10.4779C16.3426 10.5963 16.2582 10.7013 16.1558 10.7867C16.0534 10.872 15.9349 10.9361 15.8074 10.975C15.6798 11.0139 15.5458 11.0269 15.4131 11.0132C15.2805 10.9995 15.1519 10.9595 15.035 10.8954C14.9181 10.8313 14.8151 10.7445 14.7323 10.64L11.3983 6.64003C11.2286 6.43631 11.1468 6.17355 11.1708 5.90953C11.1948 5.6455 11.3226 5.40181 11.5263 5.23202Z" fill="#BF9C7A"/>
<path fill-rule="evenodd" clip-rule="evenodd" d="M11.5263 14.768C11.3226 14.5982 11.1948 14.3545 11.1708 14.0905C11.1468 13.8265 11.2286 13.5637 11.3983 13.36L14.7323 9.36C14.8151 9.25555 14.9181 9.16872 15.035 9.10464C15.1519 9.04055 15.2805 9.0005 15.4131 8.98683C15.5458 8.97317 15.6798 8.98617 15.8074 9.02507C15.9349 9.06397 16.0534 9.12798 16.1558 9.21335C16.2582 9.29871 16.3426 9.4037 16.4038 9.52213C16.4651 9.64057 16.5021 9.77006 16.5125 9.90299C16.523 10.0359 16.5068 10.1696 16.4648 10.2962C16.4229 10.4227 16.3561 10.5396 16.2683 10.64L12.9353 14.64C12.8512 14.741 12.748 14.8244 12.6317 14.8855C12.5154 14.9465 12.3881 14.9841 12.2573 14.996C12.1264 15.0079 11.9945 14.9939 11.8691 14.9547C11.7437 14.9156 11.6272 14.8522 11.5263 14.768Z" fill="#BF9C7A"/>
<path fill-rule="evenodd" clip-rule="evenodd" d="M14.5 10C14.5 10.2652 14.3946 10.5196 14.2071 10.7071C14.0196 10.8946 13.7652 11 13.5 11H5.5C5.23478 11 4.98043 10.8946 4.79289 10.7071C4.60536 10.5196 4.5 10.2652 4.5 10C4.5 9.73478 4.60536 9.48043 4.79289 9.29289C4.98043 9.10536 5.23478 9 5.5 9H13.5C13.7652 9 14.0196 9.10536 14.2071 9.29289C14.3946 9.48043 14.5 9.73478 14.5 10Z" fill="#BF9C7A"/>
</svg>
