<svg width="18" height="18" viewBox="0 0 18 18" fill="none" xmlns="http://www.w3.org/2000/svg">
<path d="M17.9997 16L12.8457 10.846C13.7986 9.39788 14.1802 7.64774 13.9167 5.93442C13.6533 4.22111 12.7635 2.66648 11.4196 1.57154C10.0758 0.476593 8.37342 -0.0807732 6.6422 0.00734836C4.91099 0.09547 3.27404 0.822811 2.04831 2.04855C0.822567 3.27429 0.0952258 4.91123 0.00710422 6.64245C-0.0810174 8.37366 0.476349 10.076 1.57129 11.4199C2.66623 12.7637 4.22086 13.6535 5.93418 13.917C7.6475 14.1804 9.39763 13.7988 10.8457 12.846L15.9997 18L17.9997 16ZM1.99973 6.99998C1.99973 4.24298 4.24273 1.99998 6.99973 1.99998C9.75673 1.99998 11.9997 4.24298 11.9997 6.99998C11.9997 9.75698 9.75673 12 6.99973 12C4.24273 12 1.99973 9.75698 1.99973 6.99998Z" fill="#432010"/>
</svg>
